<?xml version="1.0" encoding="UTF-8"?>
<svg version="1.1" xmlns="http://www.w3.org/2000/svg" width="203" height="261">
<path d="M0 0 C0.99 0.33 1.98 0.66 3 1 C3.1714304 6.41434342 2.54050862 11.31934346 1.5 16.625 C0.20339073 23.25701279 0.20339073 23.25701279 0 30 C0.21914062 29.24976562 0.43828125 28.49953125 0.6640625 27.7265625 C2.91353191 20.46607993 5.79890857 14.32964443 10 8 C11.98 8.495 11.98 8.495 14 9 C13.60137854 12.78690389 12.66659213 15.96308359 11.1875 19.4375 C9.3831793 23.79298477 7.98524734 28.20475864 6.75 32.75 C6.41484375 33.98234375 6.0796875 35.2146875 5.734375 36.484375 C5.04586985 39.7804103 4.85601133 42.64712095 5 46 C5.38929688 45.44054688 5.77859375 44.88109375 6.1796875 44.3046875 C9.86718845 39.01983591 13.57926709 33.75261929 17.3125 28.5 C17.960979 27.58323486 17.960979 27.58323486 18.62255859 26.64794922 C20.31034973 24.27866509 21.93903973 22.06096027 24 20 C26.125 20.375 26.125 20.375 28 21 C26.54955729 25.10958767 24.48889248 28.43258745 22 32 C23.01320312 31.02546875 23.01320312 31.02546875 24.046875 30.03125 C25.38492188 28.77828125 25.38492188 28.77828125 26.75 27.5 C28.07257813 26.24703125 28.07257813 26.24703125 29.421875 24.96875 C32 23 32 23 36 23 C35.54017183 27.64754898 33.88565703 29.50719559 30.5 32.625 C26.97057818 35.79517542 26.97057818 35.79517542 25 40 C25.89203125 39.39929687 26.7840625 38.79859375 27.703125 38.1796875 C28.88486894 37.41061605 30.06719119 36.6424327 31.25 35.875 C31.83652344 35.47667969 32.42304688 35.07835937 33.02734375 34.66796875 C34.765625 33.5546875 34.765625 33.5546875 38 32 C40.421875 32.7578125 40.421875 32.7578125 42 34 C37.54910765 39.68725133 32.45783677 44.035006 26.8046875 48.47265625 C23.81781274 51.16417152 22.06932075 53.58908614 20 57 C31.54264395 48.55755645 31.54264395 48.55755645 43 40 C44.32 40.66 45.64 41.32 47 42 C45.01409176 45.00957228 43.01210561 48.0078806 41 51 C40.52433594 51.7115625 40.04867187 52.423125 39.55859375 53.15625 C38.42471225 54.8079938 37.21827179 56.40947849 36 58 C35.34 58 34.68 58 34 58 C34 58.99 34 59.98 34 61 C35.03125 60.401875 36.0625 59.80375 37.125 59.1875 C37.76308594 58.82785156 38.40117187 58.46820313 39.05859375 58.09765625 C40.77872588 57.1251067 42.48428938 56.1268886 44.1875 55.125 C47 54 47 54 49.375 54.8125 C50.179375 55.4003125 50.179375 55.4003125 51 56 C48.83645807 60.5975266 45.80668596 62.84664107 41.7421875 65.66796875 C39.86740273 66.89943615 39.86740273 66.89943615 39 69 C39.96421875 68.54367188 40.9284375 68.08734375 41.921875 67.6171875 C43.19754111 67.03563383 44.47360393 66.4549498 45.75 65.875 C46.70132813 65.42060547 46.70132813 65.42060547 47.671875 64.95703125 C52.45095438 62.81640194 52.45095438 62.81640194 55.453125 63.8203125 C55.96359375 64.20960937 56.4740625 64.59890625 57 65 C55.16172132 68.15133488 53.24027294 71.11964908 51 74 C51.50789062 73.72285156 52.01578125 73.44570312 52.5390625 73.16015625 C56.7077298 70.9665317 60.24131553 69.47586845 65 69 C65.33 70.32 65.66 71.64 66 73 C65.48050781 73.31453125 64.96101562 73.6290625 64.42578125 73.953125 C60.40294195 76.42185448 56.61697164 78.94818018 53 82 C54.03060547 81.54947266 54.03060547 81.54947266 55.08203125 81.08984375 C55.98308594 80.70957031 56.88414062 80.32929687 57.8125 79.9375 C58.70582031 79.55464844 59.59914062 79.17179687 60.51953125 78.77734375 C63 78 63 78 66 79 C65.71855013 82.20419855 64.99711793 83.00246392 62.49609375 85.140625 C61.48675781 85.83671875 60.47742188 86.5328125 59.4375 87.25 C58.42558594 87.95640625 57.41367188 88.6628125 56.37109375 89.390625 C55.58863281 89.92171875 54.80617187 90.4528125 54 91 C57.63 90.67 61.26 90.34 65 90 C65.33 90.99 65.66 91.98 66 93 C64.02 94.32 62.04 95.64 60 97 C62.31 97.66 64.62 98.32 67 99 C66.81640625 100.828125 66.81640625 100.828125 66 103 C63.71484375 104.484375 63.71484375 104.484375 60.9375 105.75 C60.01839844 106.17796875 59.09929687 106.6059375 58.15234375 107.046875 C57.08693359 107.51867187 57.08693359 107.51867187 56 108 C59.3 108.33 62.6 108.66 66 109 C66 110.32 66 111.64 66 113 C63.69 114.32 61.38 115.64 59 117 C60.65 117.66 62.3 118.32 64 119 C63.9375 120.75 63.9375 120.75 63 123 C60.75835678 124.59501537 58.46433357 125.74543018 56 127 C56.99 127.66 57.98 128.32 59 129 C58.40049704 132.68266103 57.75241109 136.34543185 57 140 C58.11375 140.12375 59.2275 140.2475 60.375 140.375 C64 141 64 141 66 143 C67.07921896 153.43936801 66.93478177 161.58042852 61.39453125 170.67578125 C59.13751284 176.05595678 59.27644466 181.54767617 59.22680664 187.32397461 C59.21508423 188.57513062 59.21508423 188.57513062 59.203125 189.8515625 C59.21327637 190.97812256 59.21327637 190.97812256 59.22363281 192.12744141 C59 194 59 194 57 196 C54.1796875 196.4140625 54.1796875 196.4140625 50.875 196.625 C49.23144531 196.73714844 49.23144531 196.73714844 47.5546875 196.8515625 C46.71164063 196.90054688 45.86859375 196.94953125 45 197 C44.92652344 198.14275391 44.92652344 198.14275391 44.8515625 199.30859375 C44.617203 202.54517922 44.3166942 205.77050113 44 209 C43.94714844 209.79664063 43.89429688 210.59328125 43.83984375 211.4140625 C42.9849504 218.03647574 39.07309656 221.68956339 34.53515625 226.3515625 C32.35687498 228.62717837 30.50958968 230.8780111 28.6875 233.4375 C26.44443809 236.53746197 24.08734341 238.7042831 21 241 C20.278125 241.721875 19.55625 242.44375 18.8125 243.1875 C5.44882886 256.55117114 -2.00964723 260.227097 -20.67749023 260.35009766 C-22.50151418 260.36655502 -24.32547642 260.39370771 -26.14916992 260.43212891 C-37.53193811 260.67019717 -46.69727057 260.33793612 -57 255 C-58.0996106 254.43466553 -58.0996106 254.43466553 -59.22143555 253.85791016 C-61.07003036 252.84079968 -62.84767121 251.76127082 -64.625 250.625 C-65.24979248 250.23634766 -65.87458496 249.84769531 -66.51831055 249.44726562 C-67.76849989 248.66767744 -69.01593247 247.88364689 -70.26025391 247.09472656 C-71.84046003 246.10038973 -73.44074486 245.13814236 -75.04296875 244.1796875 C-81.69349277 240.14622441 -87.51898861 235.52586419 -93 230 C-93.51498047 229.51974365 -94.02996094 229.0394873 -94.56054688 228.54467773 C-99.44879264 223.57441938 -100.20718494 218.84731546 -100.875 212.0625 C-100.99101563 211.09248047 -101.10703125 210.12246094 -101.2265625 209.12304688 C-101.50697076 206.75126032 -101.75664895 204.37587469 -102 202 C-107.28 201.67 -112.56 201.34 -118 201 C-118.35191406 199.76765625 -118.70382813 198.5353125 -119.06640625 197.265625 C-122.34323905 186.01987145 -122.34323905 186.01987145 -127.875 175.75 C-132.06222165 169.17272705 -132.18197161 162.55434027 -131 155 C-128.67156112 149.42212413 -128.67156112 149.42212413 -125.8125 147.625 C-125.214375 147.41875 -124.61625 147.2125 -124 147 C-124.165 146.4225 -124.33 145.845 -124.5 145.25 C-125 143 -125 143 -125 139 C-123.046875 138.28385417 -121.09375 137.56770833 -119.140625 136.8515625 C-117.04365072 136.0173647 -115.01855139 135.00927569 -113 134 C-118.94 134 -124.88 134 -131 134 C-131 132.68 -131 131.36 -131 130 C-129 128.25 -129 128.25 -127 127 C-127.99 126.67 -128.98 126.34 -130 126 C-129.67 124.68 -129.34 123.36 -129 122 C-124.05 122 -119.1 122 -114 122 C-116.66739588 119.33260412 -118.5389762 119.4744688 -122.25 119 C-126.73611833 118.42114602 -130.74453962 117.54744014 -135 116 C-134.67 114.68 -134.34 113.36 -134 112 C-126.74 112 -119.48 112 -112 112 C-112 111.34 -112 110.68 -112 110 C-113.34191406 110.10441406 -113.34191406 110.10441406 -114.7109375 110.2109375 C-122.57304693 110.56297225 -127.67197844 109.9241941 -134.3046875 105.60546875 C-134.86414063 105.07566406 -135.42359375 104.54585938 -136 104 C-136 103.01 -136 102.02 -136 101 C-131.94409188 99.35066652 -128.42807939 100.74840739 -124.4375 101.9375 C-119.30916716 103.48039423 -119.30916716 103.48039423 -114 104 C-120.93 100.7 -127.86 97.4 -135 94 C-135 92.68 -135 91.36 -135 90 C-132 90 -129 90 -126 90 C-127.98 88.68 -129.96 87.36 -132 86 C-131.67 84.68 -131.34 83.36 -131 82 C-125.72 82 -120.44 82 -115 82 C-119.95 79.36 -124.9 76.72 -130 74 C-130 72.68 -130 71.36 -130 70 C-122.89568237 70.38750823 -116.52507187 72.18345286 -109.76586914 74.2722168 C-105.95500574 75.53934634 -105.95500574 75.53934634 -102 76 C-103.19625 75.525625 -104.3925 75.05125 -105.625 74.5625 C-110.1434734 72.54867559 -114.31482864 70.1204162 -118.5 67.5 C-119.12342285 67.12045166 -119.7468457 66.74090332 -120.38916016 66.34985352 C-124.78771895 63.53436265 -124.78771895 63.53436265 -125.90625 60.71875 C-125.9371875 60.1515625 -125.968125 59.584375 -126 59 C-120.73378394 59.59578777 -116.05591981 60.81308796 -111.0625 62.5625 C-110.37865234 62.79646484 -109.69480469 63.03042969 -108.99023438 63.27148438 C-107.32491499 63.84211829 -105.66217507 64.42027098 -104 65 C-106.036994 63.70043409 -108.07907615 62.4103739 -110.125 61.125 C-110.69476563 60.76019531 -111.26453125 60.39539062 -111.8515625 60.01953125 C-115.46472705 57.7613034 -118.90886041 56.1813321 -123 55 C-122.67 53.68 -122.34 52.36 -122 51 C-116.99368452 50.63386648 -114.22382955 51.63164319 -109.875 54.0625 C-100.99645799 58.81448208 -91.53611709 61.84952052 -82 65 C-80.8140625 65.39574219 -79.628125 65.79148437 -78.40625 66.19921875 C-77.6121875 66.46347656 -76.818125 66.72773437 -76 67 C-85.26151271 60.72176302 -95.42068451 56.95081772 -106.08203125 53.7578125 C-115.13415549 51.01943904 -121.64985552 48.02521672 -127 40 C-127 39.01 -127 38.02 -127 37 C-121.86496656 37.64187918 -117.0056546 38.68272247 -112 40 C-112.66 39.34 -113.32 38.68 -114 38 C-113.67 36.68 -113.34 35.36 -113 34 C-110.03 34.33 -107.06 34.66 -104 35 C-104.66 34.34 -105.32 33.68 -106 33 C-106 32.01 -106 31.02 -106 30 C-102.27780705 30.5894576 -99.4359178 31.65510496 -96.125 33.4375 C-92.10908021 35.51760216 -88.39053558 36.95008932 -84 38 C-89.16867335 34.37841255 -94.09627893 31.26099956 -100 29 C-100 27.68 -100 26.36 -100 25 C-99.195625 24.87625 -98.39125 24.7525 -97.5625 24.625 C-96.716875 24.41875 -95.87125 24.2125 -95 24 C-94.67 23.34 -94.34 22.68 -94 22 C-76.91358321 23.04610715 -60.96278831 32.43598922 -46 40 C-57.59173548 31.1622807 -57.59173548 31.1622807 -70.7578125 25.0859375 C-73 24 -73 24 -73.8125 21.875 C-73.874375 21.25625 -73.93625 20.6375 -74 20 C-65.48933013 19.14893301 -60.31605305 21.86120427 -53 26 C-51.55897338 26.80146421 -50.11754553 27.60220729 -48.67578125 28.40234375 C-44.77058988 30.57866319 -40.88222356 32.78299416 -37 35 C-36.88397402 33.61417542 -36.88397402 33.61417542 -39.11132812 31.82275391 C-40.0826629 30.87200402 -41.05613396 29.92343382 -42.03125 28.9765625 C-43.07972041 27.94561072 -44.12788814 26.91435105 -45.17578125 25.8828125 C-46.83839792 24.25117626 -48.50315254 22.62193485 -50.17333984 20.99804688 C-51.77854957 19.435092 -53.37423255 17.86291401 -54.96875 16.2890625 C-55.72339539 15.56234848 -55.72339539 15.56234848 -56.49328613 14.82095337 C-57.72027998 13.60316386 -58.86776865 12.30636036 -60 11 C-60 10.01 -60 9.02 -60 8 C-59.01 7.67 -58.02 7.34 -57 7 C-55.0625 8.109375 -55.0625 8.109375 -53 9.75 C-52.319375 10.28109375 -51.63875 10.8121875 -50.9375 11.359375 C-48.36321178 13.53921584 -46.26918926 15.62114104 -44.3125 18.375 C-41.32309816 21.76837506 -37.9000613 23.77545047 -34 26 C-34.33 25.67 -34.66 25.34 -35 25 C-36.98691552 22.53492491 -38.95438082 20.05481842 -40.921875 17.57421875 C-42.56747004 15.5357843 -44.25455738 13.57608385 -46 11.625 C-48 9 -48 9 -48 5 C-44.29490902 5.17773499 -42.48135147 6.24112413 -39.9921875 8.8359375 C-38.94171743 10.00547848 -37.90291773 11.18558896 -36.875 12.375 C-35.83105001 13.54976436 -34.78678905 14.72425247 -33.7421875 15.8984375 C-33.2869873 16.42099121 -32.83178711 16.94354492 -32.36279297 17.48193359 C-30.95973083 19.04485734 -29.49750354 20.52781258 -28 22 C-28.74137482 17.22793218 -30.63122537 13.68842992 -32.94140625 9.5 C-34.08819939 6.79170623 -34.20261446 4.90933587 -34 2 C-32.68 2 -31.36 2 -30 2 C-29.40832031 3.134375 -28.81664063 4.26875 -28.20703125 5.4375 C-27.40901803 6.95841932 -26.61083165 8.4792478 -25.8125 10 C-25.42513672 10.74378906 -25.03777344 11.48757813 -24.63867188 12.25390625 C-21.97471895 17.31761841 -19.1009827 22.19171629 -16 27 C-16.15355957 26.39591309 -16.30711914 25.79182617 -16.46533203 25.16943359 C-18.44405919 17.14068038 -18.18319352 9.2029986 -18 1 C-16.35 1.33 -14.7 1.66 -13 2 C-10.90978711 12.3176466 -8.9221938 22.64978534 -7 33 C-6.78851318 31.66038208 -6.78851318 31.66038208 -6.57275391 30.29370117 C-6.04559716 26.97727647 -5.51185891 23.66205101 -4.97363281 20.34741211 C-4.7421464 18.91326627 -4.51328301 17.47869446 -4.28710938 16.04370117 C-3.96133939 13.97977683 -3.62613181 11.91757399 -3.2890625 9.85546875 C-3.09006348 8.61434326 -2.89106445 7.37321777 -2.68603516 6.09448242 C-2 3 -2 3 0 0 Z M20 33 C21 35 21 35 21 35 Z M-2 34 C-1 37 -1 37 -1 37 Z M18 36 C19 38 19 38 19 38 Z M-72 39 C-68.09791148 42.29659203 -64.05023849 44.92455442 -59.625 47.4375 C-58.93035645 47.83364502 -58.23571289 48.22979004 -57.52001953 48.63793945 C-52.76333298 51.25814814 -48.07148705 53.13995684 -42.875 54.6875 C-36.99117708 56.49551739 -33.52078752 57.87885451 -30 63 C-29.6875 65.625 -29.6875 65.625 -30 68 C-29.70005043 69.34123791 -29.37129568 70.6767357 -29 72 C-30.26457031 71.62746094 -31.52914062 71.25492188 -32.83203125 70.87109375 C-34.49205839 70.39278085 -36.15222182 69.91494079 -37.8125 69.4375 C-38.64587891 69.19064453 -39.47925781 68.94378906 -40.33789062 68.68945312 C-41.14033203 68.46064453 -41.94277344 68.23183594 -42.76953125 67.99609375 C-43.50792236 67.78138428 -44.24631348 67.5666748 -45.00708008 67.34545898 C-47.19949464 66.80338008 -47.19949464 66.80338008 -50 68 C-48.02 68.66 -46.04 69.32 -44 70 C-44.33 70.99 -44.66 71.98 -45 73 C-47.64 73 -50.28 73 -53 73 C-51.7625 74.1446875 -51.7625 74.1446875 -50.5 75.3125 C-48 78 -48 78 -48 81 C-54.39006759 79.72198648 -60.36608638 77.92260224 -66.49609375 75.70703125 C-68.97079818 74.70479864 -68.97079818 74.70479864 -71 76 C-69.71086513 76.67154933 -68.41859796 77.33708859 -67.125 78 C-66.40570313 78.37125 -65.68640625 78.7425 -64.9453125 79.125 C-63.05151023 80.13673746 -63.05151023 80.13673746 -61 80 C-61 81.32 -61 82.64 -61 84 C-61.79664063 83.7834375 -62.59328125 83.566875 -63.4140625 83.34375 C-64.47367188 83.0653125 -65.53328125 82.786875 -66.625 82.5 C-67.66914062 82.2215625 -68.71328125 81.943125 -69.7890625 81.65625 C-72.95687418 81.00881404 -75.77741467 80.8838708 -79 81 C-76.3144406 83.6855594 -73.62378672 84.06049974 -70 85 C-70.33 85.99 -70.66 86.98 -71 88 C-72.2375 87.71125 -73.475 87.4225 -74.75 87.125 C-78.48520255 86.28516672 -82.21579262 85.6398342 -86 85.0625 C-90.62406591 84.33020859 -94.8063513 83.19899418 -99.16015625 81.48828125 C-101.2084365 80.76448073 -101.2084365 80.76448073 -104 82 C-93.91697708 87.08768971 -93.91697708 87.08768971 -83 89 C-83 90.32 -83 91.64 -83 93 C-88.36633093 92.31765858 -93.54886428 91.23469377 -98.8125 90 C-105.21512556 88.53123167 -111.42944362 87.42390686 -118 87 C-114.62547273 89.77554868 -110.94267771 91.61814929 -107 93.4375 C-106.34443115 93.74244385 -105.6888623 94.0473877 -105.01342773 94.36157227 C-99.15396054 97.03283124 -93.16883979 99.15049682 -87 101 C-87 101.99 -87 102.98 -87 104 C-90.32725711 103.38178082 -93.50147163 102.58913699 -96.72265625 101.5546875 C-97.59083984 101.28269531 -98.45902344 101.01070312 -99.35351562 100.73046875 C-101.1653105 100.158323 -102.97521373 99.5801535 -104.78320312 98.99609375 C-105.65009766 98.72667969 -106.51699219 98.45726562 -107.41015625 98.1796875 C-108.19527588 97.92944824 -108.98039551 97.67920898 -109.78930664 97.42138672 C-112.21373948 96.95925849 -113.68114764 97.22341413 -116 98 C-111.88187244 100.2174533 -107.815281 101.75949521 -103.3828125 103.171875 C-100.10202173 104.31208425 -96.98777675 105.75178767 -93.84765625 107.23046875 C-92.02587219 108.12815893 -92.02587219 108.12815893 -90 108 C-90 109.32 -90 110.64 -90 112 C-93.3 111.34 -96.6 110.68 -100 110 C-100.66 110.99 -101.32 111.98 -102 113 C-104.6015625 113.94921875 -104.6015625 113.94921875 -107.625 114.6875 C-108.62789062 114.93886719 -109.63078125 115.19023438 -110.6640625 115.44921875 C-111.43492188 115.63097656 -112.20578125 115.81273438 -113 116 C-113 116.33 -113 116.66 -113 117 C-112.22914062 117.06058594 -111.45828125 117.12117188 -110.6640625 117.18359375 C-109.15972656 117.30927734 -109.15972656 117.30927734 -107.625 117.4375 C-106.12839844 117.55931641 -106.12839844 117.55931641 -104.6015625 117.68359375 C-102 118 -102 118 -100 119 C-101 122 -101 122 -103.0625 123.1875 C-104.0215625 123.5896875 -104.0215625 123.5896875 -105 124 C-104.67 124.99 -104.34 125.98 -104 127 C-101.03 127.33 -98.06 127.66 -95 128 C-96 131 -96 131 -98.0625 132.1875 C-98.701875 132.455625 -99.34125 132.72375 -100 133 C-100 133.99 -100 134.98 -100 136 C-101.485 136.495 -101.485 136.495 -103 137 C-103 136.01 -103 135.02 -103 134 C-106.89608498 135.48904175 -110.59097018 137.24378713 -114.3125 139.125 C-115.38113281 139.66382813 -116.44976562 140.20265625 -117.55078125 140.7578125 C-118.35902344 141.16773438 -119.16726562 141.57765625 -120 142 C-120 142.33 -120 142.66 -120 143 C-114.54520815 142.43179252 -110.08940744 141.05362055 -105 139 C-105.5625 140.8125 -105.5625 140.8125 -107 143 C-111.27228927 145.21830405 -115.23163636 146.41849224 -120 147 C-118.47058649 150.05882701 -116.05780454 150.68951234 -113 152 C-112.01 151.505 -112.01 151.505 -111 151 C-111 150.01 -111 149.02 -111 148 C-110.34 148 -109.68 148 -109 148 C-105.81612944 153.70443475 -105.87175489 158.27784429 -106.01171875 164.73828125 C-105.98304811 172.71827743 -103.45415276 180.10347688 -101 187.62890625 C-99.01169401 194.33167213 -97.84543597 200.90564929 -97.11450195 207.85302734 C-96.11848408 218.8383952 -96.11848408 218.8383952 -89.9140625 227.53515625 C-88.96660156 228.26025391 -88.96660156 228.26025391 -88 229 C-87.47148438 229.53496094 -86.94296875 230.06992188 -86.3984375 230.62109375 C-79.44793258 237.49225501 -70.37985649 242.10912685 -62 247 C-61.36239746 247.37785645 -60.72479492 247.75571289 -60.06787109 248.14501953 C-48.24550597 255.11484854 -38.04876672 256.35615065 -24.53100586 256.31567383 C-22.30598933 256.31249069 -20.08227719 256.33613185 -17.85742188 256.36132812 C-16.42187665 256.36359973 -14.98632791 256.36430526 -13.55078125 256.36328125 C-11.62745972 256.36775269 -11.62745972 256.36775269 -9.6652832 256.37231445 C5.00733535 254.88188993 16.57448635 239.90332476 26.19824219 229.87597656 C27.29976626 228.72907806 28.40818279 227.58868738 29.52832031 226.45996094 C41.40294461 214.41410918 41.71894294 197.18844472 44.05859375 181.23046875 C44.79814104 176.23118926 45.64847153 171.27035633 46.625 166.3125 C48.43093968 156.98674593 50.18821333 147.52649032 50 138 C50.66 138 51.32 138 52 138 C52.66 136.02 53.32 134.04 54 132 C52.35 131.67 50.7 131.34 49 131 C50.31224548 127.06326356 51.91910327 124.77280706 55 122 C52.03 121.01 52.03 121.01 49 120 C49 119.34 49 118.68 49 118 C50.96147874 116.61061923 52.96166576 115.2739589 55 114 C51.8035914 112.93453047 49.34252724 112.92572162 46 113 C46.125 111.25 46.125 111.25 47 109 C48.95597184 107.60287726 50.95436401 106.26220093 53 105 C53 104.67 53 104.34 53 104 C49.04 104 45.08 104 41 104 C41 103.01 41 102.02 41 101 C40.34 101 39.68 101 39 101 C39.17625835 98.62051228 39.69719773 97.29774151 41.40234375 95.62109375 C42.90649092 94.37884514 44.45129851 93.18623944 46 92 C45.01 91.67 44.02 91.34 43 91 C42.05125 91.474375 41.1025 91.94875 40.125 92.4375 C37.00706115 93.99646942 35.40490713 94.30043298 32 94 C33.29299694 91.11562221 34.65941363 89.12780579 37 87 C34.36 87.33 31.72 87.66 29 88 C30.3630868 83.14292488 33.1401475 80.96580203 37.125 78.1875 C37.68832031 77.78080078 38.25164062 77.37410156 38.83203125 76.95507812 C40.21392009 75.95964972 41.6059821 74.97837036 43 74 C42.34 73.67 41.68 73.34 41 73 C38.6995093 74.15250516 36.56985017 75.51080643 34.38671875 76.87109375 C31.71429376 78.13513765 29.919766 78.21187682 27 78 C28.92880342 74.59244728 30.8276509 71.25852365 33 68 C30.03824877 68.61277612 28.61941217 69.25372522 26 71 C23.3125 71.125 23.3125 71.125 21 71 C22.31445687 65.01191871 25.61191026 61.96570677 30 58 C29.67 57.34 29.34 56.68 29 56 C28.54149658 56.32798584 28.08299316 56.65597168 27.6105957 56.99389648 C25.51732586 58.483882 23.41511201 59.96073073 21.3125 61.4375 C20.59126953 61.95376953 19.87003906 62.47003906 19.12695312 63.00195312 C12.4644465 67.65658104 12.4644465 67.65658104 8 68 C9.55701931 63.32894208 12.08447373 59.91294315 15 56 C14.67 55.34 14.34 54.68 14 54 C13.278125 54.639375 12.55625 55.27875 11.8125 55.9375 C9.01808816 57.98673535 7.38336726 58.61332946 4 59 C4 58.34 4 57.68 4 57 C2.35 57.33 0.7 57.66 -1 58 C-1 55.36 -1 52.72 -1 50 C-1.70125 50.639375 -2.4025 51.27875 -3.125 51.9375 C-6.37643116 54.27004844 -8.00712682 55 -12 55 C-14.46500448 53.84485145 -16.67527588 52.43059946 -19 51 C-19.66 51.33 -20.32 51.66 -21 52 C-20.195625 52.598125 -19.39125 53.19625 -18.5625 53.8125 C-16 56 -16 56 -15 59 C-21.21405355 58.45964752 -26.28736035 56.40894443 -32 54 C-35.328976 52.65574119 -38.66457362 51.32815968 -42 50 C-45.39606677 48.6464179 -48.79184268 47.29210888 -52.1875 45.9375 C-53.03763672 45.59912109 -53.88777344 45.26074219 -54.76367188 44.91210938 C-58.51295757 43.4152903 -62.24054264 41.90264197 -65.92578125 40.25390625 C-68.90961906 38.81116471 -68.90961906 38.81116471 -72 39 Z M-3 39 C-2 41 -2 41 -2 41 Z M-34 43 C-30.6378363 46.65882521 -27.63949148 49.14420341 -23 51 C-22.34 50.67 -21.68 50.34 -21 50 C-22.41166886 49.01364163 -23.82956184 48.03618745 -25.25 47.0625 C-26.03890625 46.51722656 -26.8278125 45.97195312 -27.640625 45.41015625 C-29.82636993 44.10377559 -31.5153801 43.45019489 -34 43 Z M-78 46 C-77.34 46.66 -76.68 47.32 -76 48 C-75.01 47.67 -74.02 47.34 -73 47 C-74.65 46.67 -76.3 46.34 -78 46 Z M-73 48 C-66.07299802 55.22078108 -57.85655729 58.63631852 -48.5625 61.9375 C-47.67369141 62.25630127 -46.78488281 62.57510254 -45.86914062 62.90356445 C-45.02673828 63.19191162 -44.18433594 63.48025879 -43.31640625 63.77734375 C-42.55787354 64.03765381 -41.79934082 64.29796387 -41.01782227 64.56616211 C-38.81106528 65.21956374 -38.81106528 65.21956374 -36 64 C-53.68447381 53.91049757 -53.68447381 53.91049757 -73 48 Z M-91 51 C-89.35 52.32 -87.7 53.64 -86 55 C-85.34 54.67 -84.68 54.34 -84 54 C-87.05580974 51.41222792 -87.05580974 51.41222792 -91 51 Z M-84 55 C-83.67 55.66 -83.34 56.32 -83 57 C-82.34 56.67 -81.68 56.34 -81 56 C-81.99 55.67 -82.98 55.34 -84 55 Z M-81 57 C-80.67 57.66 -80.34 58.32 -80 59 C-79.34 58.67 -78.68 58.34 -78 58 C-78.99 57.67 -79.98 57.34 -81 57 Z M-73 61 C-71.19038423 62.62831762 -71.19038423 62.62831762 -69 64 C-68.01 63.67 -67.02 63.34 -66 63 C-68.64738916 61.5393715 -69.89448334 61 -73 61 Z M55 144 C52.64073796 146.35926204 52.66842602 147.12400689 52.3671875 150.3515625 C52.24150391 151.62773437 52.24150391 151.62773437 52.11328125 152.9296875 C52.03464844 153.81914062 51.95601562 154.70859375 51.875 155.625 C51.78863281 156.5221875 51.70226562 157.419375 51.61328125 158.34375 C51.4009076 160.5618748 51.19682915 162.78045069 51 165 C51.99 165.33 52.98 165.66 54 166 C53.24976709 172.81928125 52.57346811 178.06778514 48.109375 183.3984375 C46.2273845 186.11539562 46.19875681 188.75363876 46 192 C49.76624671 193.25541557 51.37188934 192.37061958 55 191 C55.00257813 189.76765625 55.00515625 188.5353125 55.0078125 187.265625 C55.17641194 177.85834803 55.79685898 171.23690043 60.69921875 163 C63.18715898 157.26204776 62.45294498 151.13992086 62 145 C58.59679066 144.32326553 58.59679066 144.32326553 55 144 Z M-124 152 C-127.78894994 156.23590382 -127.7254937 159.93277365 -127.62109375 165.44140625 C-126.70316401 170.70073955 -124.0410737 174.22906522 -121.046875 178.56640625 C-117.61765756 184.31885305 -116.37058286 190.4807144 -115 197 C-111.04 197 -107.08 197 -103 197 C-103.49264433 190.71878483 -105.0931872 185.13732617 -107.01171875 179.14453125 C-108.17071309 175.45682197 -109.11496122 171.76141483 -110 168 C-111.32 168.33 -112.64 168.66 -114 169 C-114.33 170.98 -114.66 172.96 -115 175 C-114.01 175.33 -113.02 175.66 -112 176 C-110.8125 179.5625 -110.8125 179.5625 -110 183 C-110.66 183 -111.32 183 -112 183 C-112.268125 182.071875 -112.53625 181.14375 -112.8125 180.1875 C-113.91148371 177.23759634 -114.62418561 175.94384814 -117 174 C-116.3125 171.6875 -116.3125 171.6875 -115 169 C-113.700625 168.3503125 -113.700625 168.3503125 -112.375 167.6875 C-109.56172849 166.09303723 -109.56172849 166.09303723 -109.1875 162.125 C-109.35266329 159.40731308 -109.65301138 158.34869373 -111.58984375 156.40234375 C-115.55426334 153.79237078 -119.21457444 152.35890692 -124 152 Z M50 168 C49.34 171.63 48.68 175.26 48 179 C51.17009472 177.37921338 51.17009472 177.37921338 51.51171875 174.8359375 C51.56972656 174.02382812 51.62773437 173.21171875 51.6875 172.375 C51.78611328 171.14910156 51.78611328 171.14910156 51.88671875 169.8984375 C51.94279297 168.95871094 51.94279297 168.95871094 52 168 C51.34 168 50.68 168 50 168 Z " fill="#000000" transform="translate(136,0)"/>
<path d="M0 0 C1.95387753 1.7244186 3.7387704 3.46995735 5.4453125 5.4375 C5.1153125 6.4275 4.7853125 7.4175 4.4453125 8.4375 C3.13784058 8.18734131 3.13784058 8.18734131 1.80395508 7.93212891 C-1.34226805 7.46878311 -4.12393525 7.38867568 -7.29296875 7.5234375 C-8.36095703 7.56726563 -9.42894531 7.61109375 -10.52929688 7.65625 C-12.18155273 7.73359375 -12.18155273 7.73359375 -13.8671875 7.8125 C-14.95708984 7.85632813 -16.04699219 7.90015625 -17.16992188 7.9453125 C-23.33945672 8.21242405 -29.42655659 8.67551955 -35.5546875 9.4375 C-35.5546875 8.1175 -35.5546875 6.7975 -35.5546875 5.4375 C-34.55566406 5.25574219 -33.55664062 5.07398437 -32.52734375 4.88671875 C-31.23699219 4.63535156 -29.94664063 4.38398437 -28.6171875 4.125 C-27.32941406 3.88136719 -26.04164062 3.63773437 -24.71484375 3.38671875 C-23.67199219 3.07347656 -22.62914063 2.76023437 -21.5546875 2.4375 C-21.2246875 1.4475 -20.8946875 0.4575 -20.5546875 -0.5625 C-14.05572305 -2.00671432 -5.91740688 -3.6192091 0 0 Z " fill="#000000" transform="translate(93.5546875,100.5625)"/>
<path d="M0 0 C1.05548538 0.03185898 1.05548538 0.03185898 2.1322937 0.06436157 C3.6167642 0.11055498 5.10115195 0.15947757 6.58544922 0.2109375 C8.86538588 0.28900081 11.14546244 0.35603516 13.42578125 0.421875 C14.86720878 0.46809115 16.30861605 0.51494411 17.75 0.5625 C19.72444092 0.62703369 19.72444092 0.62703369 21.73876953 0.69287109 C24.7421875 0.9140625 24.7421875 0.9140625 25.7421875 1.9140625 C25.78282582 3.58023365 25.7849085 5.24794345 25.7421875 6.9140625 C25.2152832 6.75397705 24.68837891 6.5938916 24.14550781 6.42895508 C18.72180338 5.26696883 13.01601597 5.64221874 7.4921875 5.6015625 C6.19410156 5.57255859 4.89601562 5.54355469 3.55859375 5.51367188 C-4.00845898 5.4635334 -8.74643389 6.08979587 -15.2578125 9.9140625 C-16.2478125 9.5840625 -17.2378125 9.2540625 -18.2578125 8.9140625 C-16.75145785 4.69626947 -14.01768828 3.1392951 -10.2578125 0.9140625 C-6.6289368 -0.29556273 -3.82734307 -0.11833286 0 0 Z " fill="#000000" transform="translate(145.2578125,98.0859375)"/>
<path d="M0 0 C1.16660156 -0.01998047 2.33320313 -0.03996094 3.53515625 -0.06054688 C4.66050781 -0.05990234 5.78585938 -0.05925781 6.9453125 -0.05859375 C7.96383301 -0.06044678 8.98235352 -0.0622998 10.03173828 -0.06420898 C13.62584496 0.56999067 15.33009259 1.86020498 17.875 4.4375 C17.875 5.4275 17.875 6.4175 17.875 7.4375 C17.215 7.293125 16.555 7.14875 15.875 7 C14.885 6.814375 13.895 6.62875 12.875 6.4375 C12.21242187 6.30730469 11.54984375 6.17710937 10.8671875 6.04296875 C8.46881845 5.60337737 8.46881845 5.60337737 4.875 5.4375 C4.40707031 5.92347656 3.93914062 6.40945312 3.45703125 6.91015625 C1.875 8.4375 1.875 8.4375 -0.60546875 8.73046875 C-1.49878906 8.69566406 -2.39210937 8.66085938 -3.3125 8.625 C-4.21355469 8.59792969 -5.11460937 8.57085937 -6.04296875 8.54296875 C-6.73003906 8.50816406 -7.41710937 8.47335938 -8.125 8.4375 C-8.455 7.1175 -8.785 5.7975 -9.125 4.4375 C-10.0325 4.9325 -10.94 5.4275 -11.875 5.9375 C-15.125 7.4375 -15.125 7.4375 -19.125 7.4375 C-19.455 6.1175 -19.785 4.7975 -20.125 3.4375 C-13.55610385 -0.17252019 -7.37990953 -0.04514961 0 0 Z " fill="#000000" transform="translate(153.125,123.5625)"/>
<path d="M0 0 C0.33 1.32 0.66 2.64 1 4 C-0.093125 4.103125 -1.18625 4.20625 -2.3125 4.3125 C-5.9219265 4.6151716 -5.9219265 4.6151716 -7.5 6.5625 C-9 8 -9 8 -12.5625 8.25 C-16 8 -16 8 -18 7 C-18 6.34 -18 5.68 -18 5 C-22.455 6.485 -22.455 6.485 -27 8 C-27.33 6.68 -27.66 5.36 -28 4 C-21.65159951 -2.34840049 -8.33127381 -0.17217328 0 0 Z " fill="#000000" transform="translate(90,126)"/>
<path d="M0 0 C2.89815558 0.23498559 4.62812294 0.71662968 6.953125 2.48828125 C9.81528363 6.00043392 10.98903155 9.74507205 12.4375 14 C13.0519016 15.72448771 13.66778502 17.4484482 14.28515625 19.171875 C14.5805127 20.00525391 14.87586914 20.83863281 15.18017578 21.69726562 C18.26789225 30.37008925 21.97934667 38.08381829 27.05419922 45.75097656 C29.53324305 49.62966691 30.77345541 52.38617032 30 57 C26.3558226 59.4294516 24.28758728 59.16179575 20 59 C20 60.32 20 61.64 20 63 C21.65 62.01 23.3 61.02 25 60 C25 63 25 63 22.5 65.6875 C21.2625 66.8321875 21.2625 66.8321875 20 68 C21.093125 67.360625 22.18625 66.72125 23.3125 66.0625 C25.5838291 64.73398675 27.47439892 63.84186703 30 63 C28.60667426 66.36720387 27.0210714 67.9859524 24 70 C24.721875 69.71125 25.44375 69.4225 26.1875 69.125 C28.79166667 68.08333333 31.39583333 67.04166667 34 66 C34 66.66 34 67.32 34 68 C32.46875 69.2890625 32.46875 69.2890625 30.5 70.625 C29.8503125 71.07101563 29.200625 71.51703125 28.53125 71.9765625 C27.77328125 72.48316406 27.77328125 72.48316406 27 73 C27.20238281 73.59941406 27.40476562 74.19882813 27.61328125 74.81640625 C28 77 28 77 26.1875 79.9375 C19.22497642 87.46916719 7.76642378 90.38362278 -2 92 C-6.70424212 92.15984742 -11.34587448 91.65975277 -16 91 C-16.33 90.01 -16.66 89.02 -17 88 C-18.3921875 87.814375 -18.3921875 87.814375 -19.8125 87.625 C-23 87 -23 87 -26 85 C-25.505 83.515 -25.505 83.515 -25 82 C-23.88625 82.144375 -22.7725 82.28875 -21.625 82.4375 C-20.88765625 82.52322266 -20.1503125 82.60894531 -19.390625 82.69726562 C-17.83279841 82.89453942 -16.27929282 83.13109415 -14.734375 83.41210938 C-7.6521748 84.52016884 -2.82489912 82.95301034 3.625 80.0625 C4.98818359 79.48338867 4.98818359 79.48338867 6.37890625 78.89257812 C8.59520407 77.94773537 10.8007595 76.98373596 13 76 C7.67979978 75.92570085 2.35990331 75.87132753 -2.96069336 75.83520508 C-4.76966617 75.82014245 -6.5786026 75.79968823 -8.38745117 75.77368164 C-10.99146515 75.7371868 -13.5949952 75.72024843 -16.19921875 75.70703125 C-17.00461594 75.69154739 -17.81001312 75.67606354 -18.63981628 75.66011047 C-23.36342611 75.6587029 -26.03030395 76.20387745 -30 79 C-32.61328125 79.109375 -32.61328125 79.109375 -35.3125 78.75 C-36.26382813 78.63269531 -37.21515625 78.51539063 -38.1953125 78.39453125 C-39.12085937 78.26433594 -40.04640625 78.13414062 -41 78 C-42.56237217 77.81143784 -44.12485574 77.62379389 -45.6875 77.4375 C-46.780625 77.293125 -47.87375 77.14875 -49 77 C-49 76.34 -49 75.68 -49 75 C-43.84828377 74.90961901 -39.08086796 75.15318867 -34 76 C-37.96 75.01 -41.92 74.02 -46 73 C-46 72.34 -46 71.68 -46 71 C-39.07 71.495 -39.07 71.495 -32 72 C-33.794375 71.54625 -35.58875 71.0925 -37.4375 70.625 C-40.49609375 69.8515625 -40.49609375 69.8515625 -43 69 C-43.33 68.34 -43.66 67.68 -44 67 C-37.91766294 67.67581523 -31.98685848 68.73638028 -26 70 C-29.57992391 68.09944543 -33.20518822 66.94639176 -37.07421875 65.78125 C-39 65 -39 65 -40 63 C-33.9490696 64.16554807 -27.96533774 65.45343096 -22 67 C-22.93972656 66.58427734 -22.93972656 66.58427734 -23.8984375 66.16015625 C-24.71570313 65.79792969 -25.53296875 65.43570313 -26.375 65.0625 C-27.59316406 64.52302734 -27.59316406 64.52302734 -28.8359375 63.97265625 C-30.23683785 63.3430097 -31.62625284 62.68687358 -33 62 C-32.67 61.01 -32.34 60.02 -32 59 C-31.01 59.66 -30.02 60.32 -29 61 C-27.11966003 61.59321869 -25.22129792 62.13095819 -23.3125 62.625 C-22.31863281 62.88539063 -21.32476562 63.14578125 -20.30078125 63.4140625 C-19.16189453 63.70410156 -19.16189453 63.70410156 -18 64 C-20.64 62.68 -23.28 61.36 -26 60 C-25.67 59.01 -25.34 58.02 -25 57 C-22.36 58.32 -19.72 59.64 -17 61 C-17.495 58.525 -17.495 58.525 -18 56 C-17.34 56 -16.68 56 -16 56 C-15.34 56.66 -14.68 57.32 -14 58 C-13.67 56.68 -13.34 55.36 -13 54 C-11.74335022 56.90600261 -11 58.79604584 -11 62 C-8.03 62.33 -5.06 62.66 -2 63 C-2 59.04 -2 55.08 -2 51 C-3.65 51 -5.3 51 -7 51 C-7.99377929 47.9082422 -8.01408064 46.07685839 -7 43 C-5.90844727 41.35253906 -5.90844727 41.35253906 -4.56640625 39.765625 C-4.08236328 39.19199219 -3.59832031 38.61835938 -3.09960938 38.02734375 C-2.59236328 37.44082031 -2.08511719 36.85429687 -1.5625 36.25 C-1.05912109 35.64800781 -0.55574219 35.04601562 -0.03710938 34.42578125 C1.25942687 32.90712923 2.62512788 31.44811493 4 30 C4.66 30 5.32 30 6 30 C5.45859375 28.48019531 5.45859375 28.48019531 4.90625 26.9296875 C4.43701581 25.57829303 3.96829284 24.22672096 3.5 22.875 C3.26152344 22.20984375 3.02304688 21.5446875 2.77734375 20.859375 C1.35600806 16.71719669 0.94756976 13.41724764 1 9 C0.34 8.34 -0.32 7.68 -1 7 C-1.1875 3.9375 -1.1875 3.9375 -1 1 C-0.67 0.67 -0.34 0.34 0 0 Z M0 52 C0 55.63 0 59.26 0 63 C0.33 63 0.66 63 1 63 C1.33 59.37 1.66 55.74 2 52 C1.34 52 0.68 52 0 52 Z M4 54 C3.67 56.64 3.34 59.28 3 62 C5.50037734 59.82575883 6.43628586 58.26954202 7 55 C6.01 54.67 5.02 54.34 4 54 Z M9 56 C8.34 57.65 7.68 59.3 7 61 C8.32 59.68 9.64 58.36 11 57 C10.34 56.67 9.68 56.34 9 56 Z M13 57 C12.34 58.65 11.68 60.3 11 62 C12.32 60.68 13.64 59.36 15 58 C14.34 57.67 13.68 57.34 13 57 Z M15.375 59.5 C14.92125 59.995 14.4675 60.49 14 61 C14.33 61.99 14.66 62.98 15 64 C16.37562854 62.71034824 17.70766393 61.37310707 19 60 C19 59.34 19 58.68 19 58 C16.87635519 57.77390663 16.87635519 57.77390663 15.375 59.5 Z M17 64 C17.33 64.66 17.66 65.32 18 66 C18.33 65.34 18.66 64.68 19 64 C18.34 64 17.68 64 17 64 Z " fill="#000000" transform="translate(118,127)"/>
<path d="M0 0 C0.33 3.63 0.66 7.26 1 11 C-4.75 14 -4.75 14 -7 14 C-6.67 13.01 -6.34 12.02 -6 11 C-5.01 10.67 -4.02 10.34 -3 10 C-2.67 7.03 -2.34 4.06 -2 1 C-2.66 1 -3.32 1 -4 1 C-4 1.66 -4 2.32 -4 3 C-4.66 3 -5.32 3 -6 3 C-6 2.01 -6 1.02 -6 0 C-4 -1 -4 -1 0 0 Z " fill="#000000" transform="translate(196,149)"/>
<path d="M0 0 C7.57142857 3 7.57142857 3 10 6 C5.72290301 6 4.44069624 5.29379749 1 3 C0.67 6.63 0.34 10.26 0 14 C-0.66 13.67 -1.32 13.34 -2 13 C-2.16682272 8.07872966 -2.24828052 4.49656104 0 0 Z " fill="#000000" transform="translate(14,155)"/>
<path d="M0 0 C2 3 2 3 2 6 C-1.63 6.66 -5.26 7.32 -9 8 C-8.67 9.32 -8.34 10.64 -8 12 C-9.32 12 -10.64 12 -12 12 C-12.66 11.34 -13.32 10.68 -14 10 C-13.87022682 6.43123758 -13.72179807 3.93232251 -11.5 1.0625 C-7.80201874 -0.50914203 -3.95290611 -0.77837147 0 0 Z " fill="#000000" transform="translate(107,165)"/>
<path d="M0 0 C0 0.66 0 1.32 0 2 C-2.64 2.66 -5.28 3.32 -8 4 C-8.33 3.34 -8.66 2.68 -9 2 C-3.375 0 -3.375 0 0 0 Z " fill="#000000" transform="translate(155,198)"/>
<path d="M0 0 C0.66 0.66 1.32 1.32 2 2 C-1.08809695 3.76462683 -2.23312136 4 -6 4 C-6 3.34 -6 2.68 -6 2 C-4.02 1.34 -2.04 0.68 0 0 Z " fill="#000000" transform="translate(154,202)"/>
<path d="M0 0 C0.33 0.99 0.66 1.98 1 3 C-0.75 5.6875 -0.75 5.6875 -3 8 C-3.99 8 -4.98 8 -6 8 C-5.65120368 4.74456771 -4.97866739 3.98126893 -2.4375 1.75 C-1.633125 1.1725 -0.82875 0.595 0 0 Z " fill="#000000" transform="translate(115,237)"/>
</svg>
